<svg width="22" height="30" viewBox="0 0 22 30" fill="none" xmlns="http://www.w3.org/2000/svg">
<path d="M21.56 15.48C21.56 15.9867 20.3867 16.5733 18.04 17.24C18.2533 20.0133 18.36 22.3733 18.36 24.32C18.36 27.68 17.9333 29.36 17.08 29.36C16.6267 29.36 16.2667 29.08 16 28.52C15.7333 27.96 15.52 26.9867 15.36 25.6C15.1733 23.04 14.9733 20.5333 14.76 18.08C13.56 18.4 12.4667 18.6933 11.48 18.96C10.4933 19.2 9 19.6 7 20.16C4.65333 26.2933 3.26667 29.36 2.84 29.36C2.41333 29.36 1.94667 29.1067 1.44 28.6C0.96 28.0667 0.72 27.5067 0.72 26.92C0.72 26.6533 1.48 24.76 3 21.24H2.72C2.18667 21.24 1.70667 21.0667 1.28 20.72C0.88 20.3733 0.68 19.9467 0.68 19.44C0.68 18.9067 2 18.2133 4.64 17.36C5.06667 16.4 5.41333 15.5333 5.68 14.76C6.29333 13.24 7.14667 11.16 8.24 8.52C9.33333 5.88 10.0267 4.2 10.32 3.48C10.6133 2.73333 11.12 2.10666 11.84 1.6C12.5867 1.06667 13.3067 0.799999 14 0.799999C14.8267 0.799999 15.56 2.12 16.2 4.76C16.8667 7.4 17.4 10.6667 17.8 14.56C18.5467 14.48 19.2 14.44 19.76 14.44C20.96 14.44 21.56 14.7867 21.56 15.48ZM8.48 16.32C10.3733 15.8133 12.3733 15.3867 14.48 15.04C14 10.48 13.5333 7.05333 13.08 4.76C11.88 7.50667 10.3467 11.36 8.48 16.32Z" fill="#F1F0EA"/>
</svg>
